<svg width="429.00000000000006" height="88.52327171399455" viewBox="0 0 370.00000000000006 76.34874250391138" class="css-1j8o68f"><defs id="SvgjsDefs1972"></defs><g id="SvgjsG1973" featurekey="symbolFeature-0" transform="matrix(0.9051529169029837,0,0,0.9051529169029837,-10.258098172999963,-7.082820970511085)" fill="#000000"><symbol xmlns="http://www.w3.org/2000/svg" viewBox="-9.858 -9.858 19.716 19.716"><path fill="#000000" stroke="#000000" stroke-width="2.5699" stroke-miterlimit="10" d="M8.573,0c0-4.735-3.838-8.573-8.573-8.573   S-8.573-4.735-8.573,0c0,4.735,3.838,8.573,8.573,8.573S8.573,4.735,8.573,0z"></path><path fill="#000000" stroke="#000000" stroke-width="2.5699" stroke-miterlimit="10" d="M2.858,0c0-1.578-1.279-2.858-2.858-2.858   c-1.578,0-2.858,1.279-2.858,2.858c0,1.578,1.279,2.858,2.858,2.858C1.578,2.858,2.858,1.578,2.858,0z"></path></symbol><symbol xmlns="http://www.w3.org/2000/svg" viewBox="-5.525 -16.49 11.051 32.981"><path fill="#000000" stroke="#000000" stroke-width="2" stroke-miterlimit="10" d="M4.526-15.49h-9.051v30.981h1.559   c4.138,0,7.492-3.354,7.492-7.492V-15.49z"></path></symbol><g xmlns="http://www.w3.org/2000/svg" display="none"><rect x="-242.374" y="-293.377" display="inline" fill="#000000" width="1328.934" height="1233.377"></rect></g><g xmlns="http://www.w3.org/2000/svg"><path d="M33.607,37.357c2.908,0,5.273-2.366,5.273-5.274c0-0.509-0.095-0.991-0.23-1.457c-0.657-1.017-1.368-1.999-2.136-2.937   c-0.834-0.554-1.833-0.881-2.907-0.881c-2.908,0-5.274,2.366-5.274,5.274S30.699,37.357,33.607,37.357z M33.607,29.81   c1.253,0,2.273,1.02,2.273,2.274s-1.02,2.274-2.273,2.274c-1.254,0-2.274-1.02-2.274-2.274S32.353,29.81,33.607,29.81z"></path><path d="M71.667,32.083c0-2.908-2.366-5.274-5.273-5.274c-1.067,0-2.058,0.324-2.889,0.87c-0.779,0.95-1.499,1.946-2.164,2.977   c-0.129,0.457-0.221,0.929-0.221,1.426c0,2.908,2.366,5.274,5.274,5.274C69.301,37.357,71.667,34.992,71.667,32.083z    M64.119,32.083c0-1.254,1.02-2.274,2.274-2.274c1.253,0,2.273,1.02,2.273,2.274s-1.02,2.274-2.273,2.274   C65.139,34.357,64.119,33.337,64.119,32.083z"></path><path d="M81.821,57.779V16.544c-0.044,0.009-0.089,0.016-0.132,0.025c-1.551,0.335-2.414,0.785-3.868,1.329V26.3   c-1.293-2.544-3.407-4.596-5.995-5.813c-1.057,0.638-2.072,1.334-3.042,2.082c4.262,1.072,7.431,4.925,7.431,9.515   c0,5.416-4.406,9.821-9.821,9.821c-3.498,0-6.567-1.844-8.308-4.606c-0.408,1.16-0.751,2.345-1.02,3.555   c2.34,2.487,5.651,4.051,9.327,4.051c4.988,0,9.309-2.869,11.427-7.037v19.911c0,15.106-12.29,27.396-27.396,27.396   s-27.396-12.29-27.396-27.396V39.313c2.312,3.373,6.19,5.592,10.58,5.592c3.682,0,6.996-1.569,9.337-4.062   c-0.269-1.21-0.614-2.396-1.022-3.556c-1.739,2.768-4.811,4.618-8.315,4.618c-5.416,0-9.822-4.406-9.822-9.821   c0-4.592,3.173-8.448,7.439-9.517c-0.971-0.748-1.986-1.445-3.044-2.083c-2.081,0.978-3.863,2.489-5.152,4.37v-6.88   c-1.293-0.493-2.628-0.907-4-1.235v41.039c0,14.594,10.01,26.894,23.525,30.396H23.579v4h52.843v-4H58.296   C71.811,84.673,81.821,72.373,81.821,57.779z"></path><path d="M43.847,17.897h12.316c1.33-1.421,2.752-2.759,4.262-4H39.585C41.095,15.138,42.517,16.476,43.847,17.897z"></path><polygon points="36.765,62.976 41.793,54.267 31.737,54.267  "></polygon><polygon points="50.424,62.976 55.452,54.267 45.396,54.267  "></polygon><polygon points="69.11,54.267 59.054,54.267 64.082,62.976  "></polygon><polygon points="43.615,73.325 48.643,64.616 38.586,64.616  "></polygon><polygon points="57.233,73.325 62.261,64.616 52.205,64.616  "></polygon><polygon points="50.424,83.674 55.452,74.965 45.396,74.965  "></polygon><path d="M88.668,7.825c-2.961,0-5.887,0.313-8.689,0.929c-14.51,3.129-25.863,13.985-29.972,27.54   c-0.588-1.937-1.322-3.819-2.194-5.631C42.583,19.796,32.465,11.438,20.03,8.756c-2.81-0.618-5.736-0.931-8.697-0.931v4   c2.673,0,5.311,0.282,7.846,0.839c12.679,2.735,22.681,12.005,26.646,23.681c1.199,3.531,1.852,7.279,1.852,11.137h0.66h3.34h0.66   c0-16.615,11.98-31.258,28.493-34.82c2.528-0.556,5.166-0.837,7.838-0.837V7.825z"></path></g></g><g id="SvgjsG1974" featurekey="nameFeature-0" transform="matrix(0.7149413758419909,0,0,0.7149413758419909,85.64329053625902,24.05081075946625)" fill="#000000"><path d="M6.0938 1.4059999999999988 l27.813 0 l0 5.9375 l-27.813 0 l0 -5.9375 z M6.0938 16.875 l5.9375 0 l0 21.719 l-5.9375 0 l0 -21.719 z M6.0938 16.875 l25.078 0 l0 5.8594 l-25.078 0 l0 -5.8594 z M70.703 38.5937 l7.0313 0 l-13.594 -37.266 l-7.1094 0 l7.8906 22.266 z M41.9531 38.5937 l6.875 0 l8.125 -19.844 l-3.3594 -8.9063 z M116.64099999999999 38.5156 l-12.734 -16.25 l-4.4531 4.8438 l9.2969 11.406 l7.8906 0 z M107.969 1.4059999999999988 l-17.734 18.359 l0 -18.359 l-6.4063 0 l0 37.109 l6.4063 0 l0 -8.75 l26.328 -28.359 l-8.5938 0 z M143.281 7.5 l11.797 0 l0 -6.0938 l-30.156 0 l0 6.0938 l18.359 0 z M136.719 13.594000000000001 l6.5625 0 l0 25 l-6.5625 0 l0 -25 z M189.141 1.328000000000003 l0 21.25 c0 3.4375 -0.83336 5.9896 -2.5 7.6563 c-0.88539 0.98961 -2.1094 1.7188 -3.6719 2.1875 l0 6.0938 c1.25 -0.15625 2.3438 -0.41664 3.2813 -0.78125 c1.9271 -0.67711 3.5938 -1.6927 5 -3.0469 c1.4063 -1.5104 2.4479 -3.2552 3.125 -5.2343 c0.78125 -2.0313 1.1719 -4.4271 1.1719 -7.1875 l0 -20.938 l-6.4063 0 z M170.938 1.4059999999999988 l0 21.25 c0 3.3334 0.83336 5.8855 2.5 7.6563 c0.98961 0.98961 2.2136 1.6927 3.672 2.1094 l0 6.1719 c-0.88539 -0.10414 -1.9791 -0.36453 -3.2813 -0.78117 c-1.9791 -0.72914 -3.6198 -1.7708 -4.9219 -3.1249 c-1.4584 -1.3541 -2.5261 -3.0729 -3.2032 -5.1563 c-0.72914 -1.875 -1.0938 -4.2709 -1.0938 -7.1875 l0 -20.938 l6.3281 0 z M235.781 38.5937 l-10.078 -14.063 c1.3541 -0.41664 2.552 -0.91141 3.5937 -1.4843 c1.1459 -0.72914 2.0834 -1.5364 2.8125 -2.4218 c0.83336 -0.98961 1.4323 -2.0573 1.797 -3.2032 c0.46875 -1.25 0.70313 -2.6563 0.70313 -4.2188 c0 -1.8229 -0.3125 -3.4635 -0.9375 -4.9219 c-0.625 -1.4063 -1.5365 -2.6302 -2.7344 -3.6719 c-1.1459 -0.98961 -2.6042 -1.7709 -4.3751 -2.3438 c-1.8229 -0.57289 -3.75 -0.85938 -5.7813 -0.85938 l-16.563 0 l0 5.9375 l16.016 0 c2.4479 0 4.3489 0.52086 5.703 1.5625 s2.0313 2.6041 2.0313 4.6875 c0 1.9271 -0.67711 3.4375 -2.0313 4.5313 c-1.3541 1.1459 -3.2291 1.7188 -5.625 1.7188 l-16.094 0 l0 18.75 l6.4844 0 l0 -12.969 l8.2031 0 l9.1406 12.969 l7.7344 0 l0 0 z M264.922 1.4059999999999988 c-2.8646 0 -5.5209 0.4686 -7.9688 1.4061 c-2.3959 0.9375 -4.4792 2.2396 -6.2501 3.9063 c-1.7188 1.5625 -3.0729 3.5416 -4.0625 5.9375 c-0.83336 2.0313 -1.3021 4.2448 -1.4063 6.6406 l0 2.3438 l6.875 0 l0 -2.3438 c0.10414 -1.7709 0.39063 -3.2031 0.85938 -4.2969 c0.625 -1.5104 1.4844 -2.8645 2.5781 -4.0624 c1.3021 -1.1979 2.6563 -2.0833 4.0625 -2.6562 c1.6146 -0.625 3.3855 -0.9375 5.3126 -0.9375 l9.8438 0 l0 -5.9375 l-9.8438 0 z M267.891 18.984 l0.000076294 1.4843 l0.078125 0 c-0.10414 1.6666 -0.41664 3.2031 -0.9375 4.6094 c-0.67711 1.6146 -1.5365 2.9427 -2.5781 3.9844 c-1.1459 1.1459 -2.5 2.0313 -4.0625 2.6563 c-1.6146 0.625 -3.3855 0.9375 -5.3126 0.9375 l-9.8438 0 l0 5.9375 l9.8438 0 c2.8646 0 5.5209 -0.46875 7.9688 -1.4063 c2.3959 -0.9375 4.4792 -2.2396 6.2501 -3.9063 c1.8229 -1.8229 3.177 -3.802 4.0624 -5.9374 c0.9375 -2.0834 1.4063 -4.375 1.4063 -6.875 l0 -1.4844 l-6.875 0 z M297.344 32.6562 c-0.78125 -0.15625 -1.5105 -0.3907 -2.1876 -0.7032 c-1.4584 -0.67711 -2.7344 -1.6146 -3.8281 -2.8125 c-1.0416 -1.0938 -1.875 -2.4479 -2.5 -4.0625 c-0.57289 -1.6146 -0.85938 -3.2552 -0.85938 -4.9219 l0 -0.15625 l0 -0.23438 c0 -1.7188 0.28648 -3.3854 0.85938 -5 c0.67711 -1.6666 1.5105 -2.9948 2.5001 -3.9844 c1.0416 -1.1979 2.2916 -2.1094 3.75 -2.7344 c0.88539 -0.41664 1.6406 -0.67703 2.2656 -0.78117 l0 -5.8594 c-1.8229 0.26039 -3.4375 0.70313 -4.8438 1.3281 c-2.2916 0.98961 -4.2448 2.3177 -5.8594 3.9844 s-2.8906 3.6458 -3.8281 5.9374 s-1.4063 4.6875 -1.4063 7.1875 l0 0.15625 l0 0.23438 c0 2.5521 0.46875 4.948 1.4063 7.1876 c0.83336 2.2396 2.0834 4.1927 3.75 5.8594 c1.6666 1.7188 3.6198 3.0469 5.8594 3.9844 c1.4063 0.625 3.0469 1.0677 4.9219 1.3281 l0 -5.9375 z M318.594 20 l0.000076294 -0.23438 c0 -2.5521 -0.46875 -4.948 -1.4063 -7.1876 c-0.9375 -2.2916 -2.2135 -4.2708 -3.8281 -5.9374 c-1.5625 -1.6666 -3.4896 -2.9688 -5.7813 -3.9063 c-1.3021 -0.625 -2.8906 -1.0677 -4.7656 -1.3281 l0 5.9375 l0.9375 0.3125 c0.46875 0.15625 0.83336 0.28648 1.0938 0.39063 c1.4584 0.67711 2.7344 1.6146 3.8281 2.8125 c1.0416 1.0938 1.875 2.4479 2.5 4.0625 c0.57289 1.6146 0.85938 3.2552 0.85938 4.9219 l0 0.15625 l0 0.23438 c0 1.7188 -0.28648 3.3854 -0.85938 5 c-0.67711 1.6666 -1.5105 2.9948 -2.5001 3.9844 c-1.0416 1.1979 -2.2916 2.1094 -3.75 2.7344 c-0.67711 0.3125 -1.3802 0.54688 -2.1094 0.70313 l0 5.9375 c1.5625 -0.20836 3.125 -0.65109 4.6875 -1.3282 c2.1354 -0.88539 4.0885 -2.2135 5.8594 -3.9844 c1.7188 -1.8229 2.9948 -3.802 3.8281 -5.9374 c0.9375 -2.2916 1.4063 -4.6875 1.4063 -7.1875 l0 -0.15625 z M327.5 1.4059999999999988 l-6.0156 0 l7.5781 37.188 l6.5625 0 l-4.8438 -22.891 z M352.813 1.4059999999999988 l-4.375 15.547 l2.9688 11.328 l7.1875 -26.875 l-5.7813 0 z M343.359 12.812000000000001 l-0.46875 -1.9531 l-2.5 -9.4531 l-3.3594 11.094 l-0.15625 0.3125 l-1.25 4.375 l2.3438 10.469 l1.4844 -5.1563 l3.8281 16.094 l6.6406 0 l-5.7813 -22.891 z M390.703 38.5937 l7.0313 0 l-13.594 -37.266 l-7.1094 0 l7.8906 22.266 z M361.9531 38.5937 l6.875 0 l8.125 -19.844 l-3.3594 -8.9063 z"></path></g></svg>